<svg width="20" height="20" viewBox="0 0 20 20" fill="none" xmlns="http://www.w3.org/2000/svg">
<path d="M9.61032 18.487C14.5679 18.487 18.5869 14.4904 18.5869 9.56038C18.5869 4.63036 14.5679 0.633789 9.61032 0.633789C4.65272 0.633789 0.633789 4.63036 0.633789 9.56038C0.633789 14.4904 4.65272 18.487 9.61032 18.487Z" stroke="#342E34" stroke-width="1.2672" stroke-linecap="round" stroke-linejoin="round"/>
<path d="M1.32617 12.9962H3.74293C4.3839 12.9962 4.99861 12.743 5.45184 12.2923C5.90507 11.8416 6.15969 11.2303 6.15969 10.5929V8.53289C6.15969 7.89549 6.41431 7.2842 6.86754 6.83349C7.32077 6.38278 7.93549 6.12958 8.57645 6.12958C9.21741 6.12958 9.83213 5.87637 10.2854 5.42566C10.7386 4.97495 10.9932 4.36366 10.9932 3.72626V0.732422" stroke="#342E34" stroke-width="1.2672" stroke-linecap="round" stroke-linejoin="round"/>
<path d="M18.5838 9.42042C17.8924 9.06364 17.1256 8.87536 16.3466 8.87109H13.405C12.7641 8.87109 12.1494 9.1243 11.6961 9.57501C11.2429 10.0257 10.9883 10.637 10.9883 11.2744C10.9883 11.9118 11.2429 12.5231 11.6961 12.9738C12.1494 13.4245 12.7641 13.6777 13.405 13.6777C13.8629 13.6777 14.302 13.8586 14.6257 14.1805C14.9494 14.5025 15.1313 14.9391 15.1313 15.3944V16.5892" stroke="#342E34" stroke-width="1.2672" stroke-linecap="round" stroke-linejoin="round"/>
<path d="M9.05207 17.9264C9.20354 17.5867 9.2269 17.1751 9.05176 16.8104C8.87661 16.4458 8.68293 15.9247 8.28376 15.7487C7.8846 15.5727 7.44162 15.5388 7.05227 15.6546C6.66292 15.7703 6.3591 16.0262 6.20763 16.3658C6.09944 16.6085 5.88243 16.7912 5.60432 16.8739C5.32621 16.9566 5.0098 16.9324 4.72468 16.8067L3.97647 16.4767" stroke="#342E34" stroke-width="1.2672" stroke-linecap="round" stroke-linejoin="round"/>
</svg>
